<svg xmlns="http://www.w3.org/2000/svg" viewBox="0 0 900 560" role="img" aria-labelledby="title desc">
  <title id="title">Activation Steering with SAEs</title>
  <desc id="desc">Generated thumbnail for Activation Steering with SAEs</desc>
  <rect width="900" height="560" fill="#eff6ff"/>
  <path d="M0 96H900M0 192H900M0 288H900M0 384H900M0 480H900M112 0V560M224 0V560M336 0V560M448 0V560M560 0V560M672 0V560M784 0V560" stroke="#111827" stroke-width="1" opacity="0.07"/>
  <circle cx="760" cy="118" r="170" fill="#2563eb" opacity="0.11"/>
  <circle cx="192" cy="420" r="210" fill="#10b981" opacity="0.11"/>
  <path d="M216 300 C357 230, 357 268, 498 198" fill="none" stroke="#10b981" stroke-width="3" opacity="0.24"/><path d="M498 198 C639 128, 639 166, 780 96" fill="none" stroke="#2563eb" stroke-width="3" opacity="0.24"/><path d="M780 96 C561 26, 561 424, 342 354" fill="none" stroke="#10b981" stroke-width="3" opacity="0.24"/><path d="M342 354 C483 284, 483 322, 624 252" fill="none" stroke="#2563eb" stroke-width="3" opacity="0.24"/><path d="M624 252 C405 182, 405 220, 186 150" fill="none" stroke="#10b981" stroke-width="3" opacity="0.24"/><path d="M186 150 C327 80, 327 478, 468 408" fill="none" stroke="#2563eb" stroke-width="3" opacity="0.24"/><path d="M468 408 C609 338, 609 376, 750 306" fill="none" stroke="#10b981" stroke-width="3" opacity="0.24"/><path d="M750 306 C531 236, 531 274, 312 204" fill="none" stroke="#2563eb" stroke-width="3" opacity="0.24"/>
  <circle cx="216" cy="300" r="13" fill="#10b981" opacity="0.62"/><circle cx="498" cy="198" r="9" fill="#2563eb" opacity="0.62"/><circle cx="780" cy="96" r="9" fill="#10b981" opacity="0.62"/><circle cx="342" cy="354" r="13" fill="#2563eb" opacity="0.62"/><circle cx="624" cy="252" r="9" fill="#10b981" opacity="0.62"/><circle cx="186" cy="150" r="9" fill="#2563eb" opacity="0.62"/><circle cx="468" cy="408" r="13" fill="#10b981" opacity="0.62"/><circle cx="750" cy="306" r="9" fill="#2563eb" opacity="0.62"/><circle cx="312" cy="204" r="9" fill="#10b981" opacity="0.62"/>
  <rect x="48" y="48" width="164" height="44" rx="22" fill="white" opacity="0.9"/>
  <text x="72" y="77" fill="#2563eb" font-family="ui-monospace, SFMono-Regular, Menlo, monospace" font-size="22" font-weight="800">2024</text>
  <text x="48" y="160" fill="#111827" font-family="Inter, Manrope, Arial, sans-serif" font-size="48" font-weight="800">
    <tspan x="48" dy="0">Activation Steering with</tspan><tspan x="48" dy="56">SAEs</tspan>
  </text>
  <text x="52" y="458" fill="#374151" font-family="ui-monospace, SFMono-Regular, Menlo, monospace" font-size="22" font-weight="700">
    <tspan x="52" dy="0">alignmentforum.org/posts/C5KAZQib3bzzpeyrg#Activation_Steering_with_SAEs</tspan>
  </text>
  <rect x="48" y="504" width="248" height="4" rx="2" fill="#2563eb"/>
  <rect x="306" y="504" width="142" height="4" rx="2" fill="#10b981"/>
</svg>