<svg xmlns="http://www.w3.org/2000/svg" viewBox="0 0 900 560" role="img" aria-labelledby="title desc">
  <title id="title">An Approach to Technical AGI Safety and Security</title>
  <desc id="desc">Generated thumbnail for An Approach to Technical AGI Safety and Security</desc>
  <rect width="900" height="560" fill="#f8fafc"/>
  <path d="M0 96H900M0 192H900M0 288H900M0 384H900M0 480H900M112 0V560M224 0V560M336 0V560M448 0V560M560 0V560M672 0V560M784 0V560" stroke="#111827" stroke-width="1" opacity="0.07"/>
  <circle cx="760" cy="118" r="170" fill="#172554" opacity="0.11"/>
  <circle cx="192" cy="420" r="210" fill="#ef4444" opacity="0.11"/>
  <path d="M396 240 C327 170, 327 268, 258 198" fill="none" stroke="#ef4444" stroke-width="3" opacity="0.24"/><path d="M258 198 C189 128, 189 226, 120 156" fill="none" stroke="#172554" stroke-width="3" opacity="0.24"/><path d="M120 156 C411 86, 411 184, 702 114" fill="none" stroke="#ef4444" stroke-width="3" opacity="0.24"/><path d="M702 114 C633 44, 633 502, 564 432" fill="none" stroke="#172554" stroke-width="3" opacity="0.24"/><path d="M564 432 C495 362, 495 460, 426 390" fill="none" stroke="#ef4444" stroke-width="3" opacity="0.24"/><path d="M426 390 C357 320, 357 418, 288 348" fill="none" stroke="#172554" stroke-width="3" opacity="0.24"/><path d="M288 348 C219 278, 219 376, 150 306" fill="none" stroke="#ef4444" stroke-width="3" opacity="0.24"/><path d="M150 306 C441 236, 441 334, 732 264" fill="none" stroke="#172554" stroke-width="3" opacity="0.24"/>
  <circle cx="396" cy="240" r="13" fill="#ef4444" opacity="0.62"/><circle cx="258" cy="198" r="9" fill="#172554" opacity="0.62"/><circle cx="120" cy="156" r="9" fill="#ef4444" opacity="0.62"/><circle cx="702" cy="114" r="13" fill="#172554" opacity="0.62"/><circle cx="564" cy="432" r="9" fill="#ef4444" opacity="0.62"/><circle cx="426" cy="390" r="9" fill="#172554" opacity="0.62"/><circle cx="288" cy="348" r="13" fill="#ef4444" opacity="0.62"/><circle cx="150" cy="306" r="9" fill="#172554" opacity="0.62"/><circle cx="732" cy="264" r="9" fill="#ef4444" opacity="0.62"/>
  <rect x="48" y="48" width="164" height="44" rx="22" fill="white" opacity="0.9"/>
  <text x="72" y="77" fill="#172554" font-family="ui-monospace, SFMono-Regular, Menlo, monospace" font-size="22" font-weight="800">2025</text>
  <text x="48" y="160" fill="#111827" font-family="Inter, Manrope, Arial, sans-serif" font-size="48" font-weight="800">
    <tspan x="48" dy="0">An Approach to Technical AGI</tspan><tspan x="48" dy="56">Safety and Security</tspan>
  </text>
  <text x="52" y="458" fill="#374151" font-family="ui-monospace, SFMono-Regular, Menlo, monospace" font-size="22" font-weight="700">
    <tspan x="52" dy="0">arXiv preprint arXiv:2504.01849</tspan>
  </text>
  <rect x="48" y="504" width="248" height="4" rx="2" fill="#172554"/>
  <rect x="306" y="504" width="142" height="4" rx="2" fill="#ef4444"/>
</svg>