<svg xmlns="http://www.w3.org/2000/svg" viewBox="0 0 900 560" role="img" aria-labelledby="title desc">
  <title id="title">Attribution Patching Outperforms Automated Circuit Discovery</title>
  <desc id="desc">Generated thumbnail for Attribution Patching Outperforms Automated Circuit Discovery</desc>
  <rect width="900" height="560" fill="#fff7ed"/>
  <path d="M0 96H900M0 192H900M0 288H900M0 384H900M0 480H900M112 0V560M224 0V560M336 0V560M448 0V560M560 0V560M672 0V560M784 0V560" stroke="#111827" stroke-width="1" opacity="0.07"/>
  <circle cx="760" cy="118" r="170" fill="#dc2626" opacity="0.11"/>
  <circle cx="192" cy="420" r="210" fill="#2563eb" opacity="0.11"/>
  <path d="M801 315 C679.5 245, 679.5 358, 558 288" fill="none" stroke="#2563eb" stroke-width="3" opacity="0.24"/><path d="M558 288 C436.5 218, 436.5 331, 315 261" fill="none" stroke="#dc2626" stroke-width="3" opacity="0.24"/><path d="M315 261 C553.5 191, 553.5 304, 792 234" fill="none" stroke="#2563eb" stroke-width="3" opacity="0.24"/><path d="M792 234 C670.5 164, 670.5 277, 549 207" fill="none" stroke="#dc2626" stroke-width="3" opacity="0.24"/><path d="M549 207 C427.5 137, 427.5 250, 306 180" fill="none" stroke="#2563eb" stroke-width="3" opacity="0.24"/><path d="M306 180 C544.5 110, 544.5 223, 783 153" fill="none" stroke="#dc2626" stroke-width="3" opacity="0.24"/><path d="M783 153 C661.5 83, 661.5 196, 540 126" fill="none" stroke="#2563eb" stroke-width="3" opacity="0.24"/><path d="M540 126 C418.5 56, 418.5 169, 297 99" fill="none" stroke="#dc2626" stroke-width="3" opacity="0.24"/>
  <circle cx="801" cy="315" r="13" fill="#2563eb" opacity="0.62"/><circle cx="558" cy="288" r="9" fill="#dc2626" opacity="0.62"/><circle cx="315" cy="261" r="9" fill="#2563eb" opacity="0.62"/><circle cx="792" cy="234" r="13" fill="#dc2626" opacity="0.62"/><circle cx="549" cy="207" r="9" fill="#2563eb" opacity="0.62"/><circle cx="306" cy="180" r="9" fill="#dc2626" opacity="0.62"/><circle cx="783" cy="153" r="13" fill="#2563eb" opacity="0.62"/><circle cx="540" cy="126" r="9" fill="#dc2626" opacity="0.62"/><circle cx="297" cy="99" r="9" fill="#2563eb" opacity="0.62"/>
  <rect x="48" y="48" width="164" height="44" rx="22" fill="white" opacity="0.9"/>
  <text x="72" y="77" fill="#dc2626" font-family="ui-monospace, SFMono-Regular, Menlo, monospace" font-size="22" font-weight="800">2023</text>
  <text x="48" y="160" fill="#111827" font-family="Inter, Manrope, Arial, sans-serif" font-size="48" font-weight="800">
    <tspan x="48" dy="0">Attribution Patching</tspan><tspan x="48" dy="56">Outperforms Automated</tspan><tspan x="48" dy="56">Circuit Discovery</tspan>
  </text>
  <text x="52" y="458" fill="#374151" font-family="ui-monospace, SFMono-Regular, Menlo, monospace" font-size="22" font-weight="700">
    <tspan x="52" dy="0">BlackboxNLP</tspan>
  </text>
  <rect x="48" y="504" width="248" height="4" rx="2" fill="#dc2626"/>
  <rect x="306" y="504" width="142" height="4" rx="2" fill="#2563eb"/>
</svg>