<svg xmlns="http://www.w3.org/2000/svg" viewBox="0 0 900 560" role="img" aria-labelledby="title desc">
  <title id="title">Automatically Finding Reward Model Biases</title>
  <desc id="desc">Generated thumbnail for Automatically Finding Reward Model Biases</desc>
  <rect width="900" height="560" fill="#f8fafc"/>
  <path d="M0 96H900M0 192H900M0 288H900M0 384H900M0 480H900M112 0V560M224 0V560M336 0V560M448 0V560M560 0V560M672 0V560M784 0V560" stroke="#111827" stroke-width="1" opacity="0.07"/>
  <circle cx="760" cy="118" r="170" fill="#172554" opacity="0.11"/>
  <circle cx="192" cy="420" r="210" fill="#ef4444" opacity="0.11"/>
  <path d="M321 275 C239.5 205, 239.5 238, 158 168" fill="none" stroke="#ef4444" stroke-width="3" opacity="0.24"/><path d="M158 168 C436.5 98, 436.5 491, 715 421" fill="none" stroke="#172554" stroke-width="3" opacity="0.24"/><path d="M715 421 C633.5 351, 633.5 384, 552 314" fill="none" stroke="#ef4444" stroke-width="3" opacity="0.24"/><path d="M552 314 C470.5 244, 470.5 277, 389 207" fill="none" stroke="#172554" stroke-width="3" opacity="0.24"/><path d="M389 207 C307.5 137, 307.5 170, 226 100" fill="none" stroke="#ef4444" stroke-width="3" opacity="0.24"/><path d="M226 100 C504.5 30, 504.5 423, 783 353" fill="none" stroke="#172554" stroke-width="3" opacity="0.24"/><path d="M783 353 C701.5 283, 701.5 316, 620 246" fill="none" stroke="#ef4444" stroke-width="3" opacity="0.24"/><path d="M620 246 C538.5 176, 538.5 209, 457 139" fill="none" stroke="#172554" stroke-width="3" opacity="0.24"/>
  <circle cx="321" cy="275" r="13" fill="#ef4444" opacity="0.62"/><circle cx="158" cy="168" r="9" fill="#172554" opacity="0.62"/><circle cx="715" cy="421" r="9" fill="#ef4444" opacity="0.62"/><circle cx="552" cy="314" r="13" fill="#172554" opacity="0.62"/><circle cx="389" cy="207" r="9" fill="#ef4444" opacity="0.62"/><circle cx="226" cy="100" r="9" fill="#172554" opacity="0.62"/><circle cx="783" cy="353" r="13" fill="#ef4444" opacity="0.62"/><circle cx="620" cy="246" r="9" fill="#172554" opacity="0.62"/><circle cx="457" cy="139" r="9" fill="#ef4444" opacity="0.62"/>
  <rect x="48" y="48" width="164" height="44" rx="22" fill="white" opacity="0.9"/>
  <text x="72" y="77" fill="#172554" font-family="ui-monospace, SFMono-Regular, Menlo, monospace" font-size="22" font-weight="800">2026</text>
  <text x="48" y="160" fill="#111827" font-family="Inter, Manrope, Arial, sans-serif" font-size="48" font-weight="800">
    <tspan x="48" dy="0">Automatically Finding Reward</tspan><tspan x="48" dy="56">Model Biases</tspan>
  </text>
  <text x="52" y="458" fill="#374151" font-family="ui-monospace, SFMono-Regular, Menlo, monospace" font-size="22" font-weight="700">
    <tspan x="52" dy="0">ICML</tspan>
  </text>
  <rect x="48" y="504" width="248" height="4" rx="2" fill="#172554"/>
  <rect x="306" y="504" width="142" height="4" rx="2" fill="#ef4444"/>
</svg>