<svg xmlns="http://www.w3.org/2000/svg" viewBox="0 0 900 560" role="img" aria-labelledby="title desc">
  <title id="title">Eliciting secret knowledge from language models</title>
  <desc id="desc">Generated thumbnail for Eliciting secret knowledge from language models</desc>
  <rect width="900" height="560" fill="#f8fafc"/>
  <path d="M0 96H900M0 192H900M0 288H900M0 384H900M0 480H900M112 0V560M224 0V560M336 0V560M448 0V560M560 0V560M672 0V560M784 0V560" stroke="#111827" stroke-width="1" opacity="0.07"/>
  <circle cx="760" cy="118" r="170" fill="#172554" opacity="0.11"/>
  <circle cx="192" cy="420" r="210" fill="#ef4444" opacity="0.11"/>
  <path d="M399 445 C570.5 375, 570.5 442, 742 372" fill="none" stroke="#ef4444" stroke-width="3" opacity="0.24"/><path d="M742 372 C553.5 302, 553.5 369, 365 299" fill="none" stroke="#172554" stroke-width="3" opacity="0.24"/><path d="M365 299 C536.5 229, 536.5 296, 708 226" fill="none" stroke="#ef4444" stroke-width="3" opacity="0.24"/><path d="M708 226 C519.5 156, 519.5 223, 331 153" fill="none" stroke="#172554" stroke-width="3" opacity="0.24"/><path d="M331 153 C502.5 83, 502.5 510, 674 440" fill="none" stroke="#ef4444" stroke-width="3" opacity="0.24"/><path d="M674 440 C485.5 370, 485.5 437, 297 367" fill="none" stroke="#172554" stroke-width="3" opacity="0.24"/><path d="M297 367 C468.5 297, 468.5 364, 640 294" fill="none" stroke="#ef4444" stroke-width="3" opacity="0.24"/><path d="M640 294 C451.5 224, 451.5 291, 263 221" fill="none" stroke="#172554" stroke-width="3" opacity="0.24"/>
  <circle cx="399" cy="445" r="13" fill="#ef4444" opacity="0.62"/><circle cx="742" cy="372" r="9" fill="#172554" opacity="0.62"/><circle cx="365" cy="299" r="9" fill="#ef4444" opacity="0.62"/><circle cx="708" cy="226" r="13" fill="#172554" opacity="0.62"/><circle cx="331" cy="153" r="9" fill="#ef4444" opacity="0.62"/><circle cx="674" cy="440" r="9" fill="#172554" opacity="0.62"/><circle cx="297" cy="367" r="13" fill="#ef4444" opacity="0.62"/><circle cx="640" cy="294" r="9" fill="#172554" opacity="0.62"/><circle cx="263" cy="221" r="9" fill="#ef4444" opacity="0.62"/>
  <rect x="48" y="48" width="164" height="44" rx="22" fill="white" opacity="0.9"/>
  <text x="72" y="77" fill="#172554" font-family="ui-monospace, SFMono-Regular, Menlo, monospace" font-size="22" font-weight="800">2025</text>
  <text x="48" y="160" fill="#111827" font-family="Inter, Manrope, Arial, sans-serif" font-size="48" font-weight="800">
    <tspan x="48" dy="0">Eliciting secret knowledge</tspan><tspan x="48" dy="56">from language models</tspan>
  </text>
  <text x="52" y="458" fill="#374151" font-family="ui-monospace, SFMono-Regular, Menlo, monospace" font-size="22" font-weight="700">
    <tspan x="52" dy="0">arXiv preprint arXiv:2510.01070</tspan>
  </text>
  <rect x="48" y="504" width="248" height="4" rx="2" fill="#172554"/>
  <rect x="306" y="504" width="142" height="4" rx="2" fill="#ef4444"/>
</svg>