<svg xmlns="http://www.w3.org/2000/svg" viewBox="0 0 900 560" role="img" aria-labelledby="title desc">
  <title id="title">Gemini 2.5: Pushing the Frontier with Advanced Reasoning, Multimodality, Long Context, and Next Generation Agentic Capabilities</title>
  <desc id="desc">Generated thumbnail for Gemini 2.5: Pushing the Frontier with Advanced Reasoning, Multimodality, Long Context, and Next Generation Agentic Capabilities</desc>
  <rect width="900" height="560" fill="#ecfeff"/>
  <path d="M0 96H900M0 192H900M0 288H900M0 384H900M0 480H900M112 0V560M224 0V560M336 0V560M448 0V560M560 0V560M672 0V560M784 0V560" stroke="#111827" stroke-width="1" opacity="0.07"/>
  <circle cx="760" cy="118" r="170" fill="#0f766e" opacity="0.11"/>
  <circle cx="192" cy="420" r="210" fill="#f97316" opacity="0.11"/>
  <path d="M159 365 C410.5 295, 410.5 202, 662 132" fill="none" stroke="#f97316" stroke-width="3" opacity="0.24"/><path d="M662 132 C553.5 62, 553.5 329, 445 259" fill="none" stroke="#0f766e" stroke-width="3" opacity="0.24"/><path d="M445 259 C336.5 189, 336.5 456, 228 386" fill="none" stroke="#f97316" stroke-width="3" opacity="0.24"/><path d="M228 386 C479.5 316, 479.5 223, 731 153" fill="none" stroke="#0f766e" stroke-width="3" opacity="0.24"/><path d="M731 153 C622.5 83, 622.5 350, 514 280" fill="none" stroke="#f97316" stroke-width="3" opacity="0.24"/><path d="M514 280 C405.5 210, 405.5 477, 297 407" fill="none" stroke="#0f766e" stroke-width="3" opacity="0.24"/><path d="M297 407 C548.5 337, 548.5 244, 800 174" fill="none" stroke="#f97316" stroke-width="3" opacity="0.24"/><path d="M800 174 C691.5 104, 691.5 371, 583 301" fill="none" stroke="#0f766e" stroke-width="3" opacity="0.24"/>
  <circle cx="159" cy="365" r="13" fill="#f97316" opacity="0.62"/><circle cx="662" cy="132" r="9" fill="#0f766e" opacity="0.62"/><circle cx="445" cy="259" r="9" fill="#f97316" opacity="0.62"/><circle cx="228" cy="386" r="13" fill="#0f766e" opacity="0.62"/><circle cx="731" cy="153" r="9" fill="#f97316" opacity="0.62"/><circle cx="514" cy="280" r="9" fill="#0f766e" opacity="0.62"/><circle cx="297" cy="407" r="13" fill="#f97316" opacity="0.62"/><circle cx="800" cy="174" r="9" fill="#0f766e" opacity="0.62"/><circle cx="583" cy="301" r="9" fill="#f97316" opacity="0.62"/>
  <rect x="48" y="48" width="164" height="44" rx="22" fill="white" opacity="0.9"/>
  <text x="72" y="77" fill="#0f766e" font-family="ui-monospace, SFMono-Regular, Menlo, monospace" font-size="22" font-weight="800">2025</text>
  <text x="48" y="160" fill="#111827" font-family="Inter, Manrope, Arial, sans-serif" font-size="48" font-weight="800">
    <tspan x="48" dy="0">Gemini 2.5: Pushing the</tspan><tspan x="48" dy="56">Frontier with Advanced</tspan><tspan x="48" dy="56">Reasoning, Multimodality,</tspan><tspan x="48" dy="56">Long Context, and Next...</tspan>
  </text>
  <text x="52" y="458" fill="#374151" font-family="ui-monospace, SFMono-Regular, Menlo, monospace" font-size="22" font-weight="700">
    <tspan x="52" dy="0">arXiv preprint arXiv:2507.06261</tspan>
  </text>
  <rect x="48" y="504" width="248" height="4" rx="2" fill="#0f766e"/>
  <rect x="306" y="504" width="142" height="4" rx="2" fill="#f97316"/>
</svg>