<svg xmlns="http://www.w3.org/2000/svg" viewBox="0 0 900 560" role="img" aria-labelledby="title desc">
  <title id="title">Gemma Scope 2: Technical Paper</title>
  <desc id="desc">Generated thumbnail for Gemma Scope 2: Technical Paper</desc>
  <rect width="900" height="560" fill="#f8fafc"/>
  <path d="M0 96H900M0 192H900M0 288H900M0 384H900M0 480H900M112 0V560M224 0V560M336 0V560M448 0V560M560 0V560M672 0V560M784 0V560" stroke="#111827" stroke-width="1" opacity="0.07"/>
  <circle cx="760" cy="118" r="170" fill="#111827" opacity="0.11"/>
  <circle cx="192" cy="420" r="210" fill="#f59e0b" opacity="0.11"/>
  <path d="M672 140 C649 70, 649 436, 626 366" fill="none" stroke="#f59e0b" stroke-width="3" opacity="0.24"/><path d="M626 366 C603 296, 603 302, 580 232" fill="none" stroke="#111827" stroke-width="3" opacity="0.24"/><path d="M580 232 C557 162, 557 168, 534 98" fill="none" stroke="#f59e0b" stroke-width="3" opacity="0.24"/><path d="M534 98 C511 28, 511 394, 488 324" fill="none" stroke="#111827" stroke-width="3" opacity="0.24"/><path d="M488 324 C465 254, 465 260, 442 190" fill="none" stroke="#f59e0b" stroke-width="3" opacity="0.24"/><path d="M442 190 C419 120, 419 486, 396 416" fill="none" stroke="#111827" stroke-width="3" opacity="0.24"/><path d="M396 416 C373 346, 373 352, 350 282" fill="none" stroke="#f59e0b" stroke-width="3" opacity="0.24"/><path d="M350 282 C327 212, 327 218, 304 148" fill="none" stroke="#111827" stroke-width="3" opacity="0.24"/>
  <circle cx="672" cy="140" r="13" fill="#f59e0b" opacity="0.62"/><circle cx="626" cy="366" r="9" fill="#111827" opacity="0.62"/><circle cx="580" cy="232" r="9" fill="#f59e0b" opacity="0.62"/><circle cx="534" cy="98" r="13" fill="#111827" opacity="0.62"/><circle cx="488" cy="324" r="9" fill="#f59e0b" opacity="0.62"/><circle cx="442" cy="190" r="9" fill="#111827" opacity="0.62"/><circle cx="396" cy="416" r="13" fill="#f59e0b" opacity="0.62"/><circle cx="350" cy="282" r="9" fill="#111827" opacity="0.62"/><circle cx="304" cy="148" r="9" fill="#f59e0b" opacity="0.62"/>
  <rect x="48" y="48" width="164" height="44" rx="22" fill="white" opacity="0.9"/>
  <text x="72" y="77" fill="#111827" font-family="ui-monospace, SFMono-Regular, Menlo, monospace" font-size="22" font-weight="800">2025</text>
  <text x="48" y="160" fill="#111827" font-family="Inter, Manrope, Arial, sans-serif" font-size="48" font-weight="800">
    <tspan x="48" dy="0">Gemma Scope 2: Technical</tspan><tspan x="48" dy="56">Paper</tspan>
  </text>
  <text x="52" y="458" fill="#374151" font-family="ui-monospace, SFMono-Regular, Menlo, monospace" font-size="22" font-weight="700">
    <tspan x="52" dy="0">Google DeepMind Blog</tspan>
  </text>
  <rect x="48" y="504" width="248" height="4" rx="2" fill="#111827"/>
  <rect x="306" y="504" width="142" height="4" rx="2" fill="#f59e0b"/>
</svg>