<svg xmlns="http://www.w3.org/2000/svg" viewBox="0 0 900 560" role="img" aria-labelledby="title desc">
  <title id="title">Improving Dictionary Learning with Gated Sparse Autoencoders</title>
  <desc id="desc">Generated thumbnail for Improving Dictionary Learning with Gated Sparse Autoencoders</desc>
  <rect width="900" height="560" fill="#eff6ff"/>
  <path d="M0 96H900M0 192H900M0 288H900M0 384H900M0 480H900M112 0V560M224 0V560M336 0V560M448 0V560M560 0V560M672 0V560M784 0V560" stroke="#111827" stroke-width="1" opacity="0.07"/>
  <circle cx="760" cy="118" r="170" fill="#2563eb" opacity="0.11"/>
  <circle cx="192" cy="420" r="210" fill="#10b981" opacity="0.11"/>
  <path d="M720 420 C705 350, 705 340, 690 270" fill="none" stroke="#10b981" stroke-width="3" opacity="0.24"/><path d="M690 270 C675 200, 675 190, 660 120" fill="none" stroke="#2563eb" stroke-width="3" opacity="0.24"/><path d="M660 120 C645 50, 645 400, 630 330" fill="none" stroke="#10b981" stroke-width="3" opacity="0.24"/><path d="M630 330 C615 260, 615 250, 600 180" fill="none" stroke="#2563eb" stroke-width="3" opacity="0.24"/><path d="M600 180 C585 110, 585 460, 570 390" fill="none" stroke="#10b981" stroke-width="3" opacity="0.24"/><path d="M570 390 C555 320, 555 310, 540 240" fill="none" stroke="#2563eb" stroke-width="3" opacity="0.24"/><path d="M540 240 C525 170, 525 160, 510 90" fill="none" stroke="#10b981" stroke-width="3" opacity="0.24"/><path d="M510 90 C495 20, 495 370, 480 300" fill="none" stroke="#2563eb" stroke-width="3" opacity="0.24"/>
  <circle cx="720" cy="420" r="13" fill="#10b981" opacity="0.62"/><circle cx="690" cy="270" r="9" fill="#2563eb" opacity="0.62"/><circle cx="660" cy="120" r="9" fill="#10b981" opacity="0.62"/><circle cx="630" cy="330" r="13" fill="#2563eb" opacity="0.62"/><circle cx="600" cy="180" r="9" fill="#10b981" opacity="0.62"/><circle cx="570" cy="390" r="9" fill="#2563eb" opacity="0.62"/><circle cx="540" cy="240" r="13" fill="#10b981" opacity="0.62"/><circle cx="510" cy="90" r="9" fill="#2563eb" opacity="0.62"/><circle cx="480" cy="300" r="9" fill="#10b981" opacity="0.62"/>
  <rect x="48" y="48" width="164" height="44" rx="22" fill="white" opacity="0.9"/>
  <text x="72" y="77" fill="#2563eb" font-family="ui-monospace, SFMono-Regular, Menlo, monospace" font-size="22" font-weight="800">2024</text>
  <text x="48" y="160" fill="#111827" font-family="Inter, Manrope, Arial, sans-serif" font-size="48" font-weight="800">
    <tspan x="48" dy="0">Improving Dictionary</tspan><tspan x="48" dy="56">Learning with Gated Sparse</tspan><tspan x="48" dy="56">Autoencoders</tspan>
  </text>
  <text x="52" y="458" fill="#374151" font-family="ui-monospace, SFMono-Regular, Menlo, monospace" font-size="22" font-weight="700">
    <tspan x="52" dy="0">NeurIPS</tspan>
  </text>
  <rect x="48" y="504" width="248" height="4" rx="2" fill="#2563eb"/>
  <rect x="306" y="504" width="142" height="4" rx="2" fill="#10b981"/>
</svg>