<svg xmlns="http://www.w3.org/2000/svg" viewBox="0 0 900 560" role="img" aria-labelledby="title desc">
  <title id="title">Jumping Ahead: Improving Reconstruction Fidelity with JumpReLU Sparse Autoencoders</title>
  <desc id="desc">Generated thumbnail for Jumping Ahead: Improving Reconstruction Fidelity with JumpReLU Sparse Autoencoders</desc>
  <rect width="900" height="560" fill="#eff6ff"/>
  <path d="M0 96H900M0 192H900M0 288H900M0 384H900M0 480H900M112 0V560M224 0V560M336 0V560M448 0V560M560 0V560M672 0V560M784 0V560" stroke="#111827" stroke-width="1" opacity="0.07"/>
  <circle cx="760" cy="118" r="170" fill="#2563eb" opacity="0.11"/>
  <circle cx="192" cy="420" r="210" fill="#10b981" opacity="0.11"/>
  <path d="M726 230 C712 160, 712 328, 698 258" fill="none" stroke="#10b981" stroke-width="3" opacity="0.24"/><path d="M698 258 C684 188, 684 356, 670 286" fill="none" stroke="#2563eb" stroke-width="3" opacity="0.24"/><path d="M670 286 C656 216, 656 384, 642 314" fill="none" stroke="#10b981" stroke-width="3" opacity="0.24"/><path d="M642 314 C628 244, 628 412, 614 342" fill="none" stroke="#2563eb" stroke-width="3" opacity="0.24"/><path d="M614 342 C600 272, 600 440, 586 370" fill="none" stroke="#10b981" stroke-width="3" opacity="0.24"/><path d="M586 370 C572 300, 572 468, 558 398" fill="none" stroke="#2563eb" stroke-width="3" opacity="0.24"/><path d="M558 398 C544 328, 544 496, 530 426" fill="none" stroke="#10b981" stroke-width="3" opacity="0.24"/><path d="M530 426 C516 356, 516 164, 502 94" fill="none" stroke="#2563eb" stroke-width="3" opacity="0.24"/>
  <circle cx="726" cy="230" r="13" fill="#10b981" opacity="0.62"/><circle cx="698" cy="258" r="9" fill="#2563eb" opacity="0.62"/><circle cx="670" cy="286" r="9" fill="#10b981" opacity="0.62"/><circle cx="642" cy="314" r="13" fill="#2563eb" opacity="0.62"/><circle cx="614" cy="342" r="9" fill="#10b981" opacity="0.62"/><circle cx="586" cy="370" r="9" fill="#2563eb" opacity="0.62"/><circle cx="558" cy="398" r="13" fill="#10b981" opacity="0.62"/><circle cx="530" cy="426" r="9" fill="#2563eb" opacity="0.62"/><circle cx="502" cy="94" r="9" fill="#10b981" opacity="0.62"/>
  <rect x="48" y="48" width="164" height="44" rx="22" fill="white" opacity="0.9"/>
  <text x="72" y="77" fill="#2563eb" font-family="ui-monospace, SFMono-Regular, Menlo, monospace" font-size="22" font-weight="800">2024</text>
  <text x="48" y="160" fill="#111827" font-family="Inter, Manrope, Arial, sans-serif" font-size="48" font-weight="800">
    <tspan x="48" dy="0">Jumping Ahead: Improving</tspan><tspan x="48" dy="56">Reconstruction Fidelity with</tspan><tspan x="48" dy="56">JumpReLU Sparse Autoencoders</tspan>
  </text>
  <text x="52" y="458" fill="#374151" font-family="ui-monospace, SFMono-Regular, Menlo, monospace" font-size="22" font-weight="700">
    <tspan x="52" dy="0">arXiv preprint arXiv:2407.14435</tspan>
  </text>
  <rect x="48" y="504" width="248" height="4" rx="2" fill="#2563eb"/>
  <rect x="306" y="504" width="142" height="4" rx="2" fill="#10b981"/>
</svg>