<svg xmlns="http://www.w3.org/2000/svg" viewBox="0 0 900 560" role="img" aria-labelledby="title desc">
  <title id="title">My best guess at the important tricks for training 1L SAEs</title>
  <desc id="desc">Generated thumbnail for My best guess at the important tricks for training 1L SAEs</desc>
  <rect width="900" height="560" fill="#eff6ff"/>
  <path d="M0 96H900M0 192H900M0 288H900M0 384H900M0 480H900M112 0V560M224 0V560M336 0V560M448 0V560M560 0V560M672 0V560M784 0V560" stroke="#111827" stroke-width="1" opacity="0.07"/>
  <circle cx="760" cy="118" r="170" fill="#2563eb" opacity="0.11"/>
  <circle cx="192" cy="420" r="210" fill="#10b981" opacity="0.11"/>
  <path d="M333 375 C493.5 305, 493.5 214, 654 144" fill="none" stroke="#10b981" stroke-width="3" opacity="0.24"/><path d="M654 144 C454.5 74, 454.5 343, 255 273" fill="none" stroke="#2563eb" stroke-width="3" opacity="0.24"/><path d="M255 273 C415.5 203, 415.5 472, 576 402" fill="none" stroke="#10b981" stroke-width="3" opacity="0.24"/><path d="M576 402 C376.5 332, 376.5 241, 177 171" fill="none" stroke="#2563eb" stroke-width="3" opacity="0.24"/><path d="M177 171 C337.5 101, 337.5 370, 498 300" fill="none" stroke="#10b981" stroke-width="3" opacity="0.24"/><path d="M498 300 C298.5 230, 298.5 499, 99 429" fill="none" stroke="#2563eb" stroke-width="3" opacity="0.24"/><path d="M99 429 C259.5 359, 259.5 268, 420 198" fill="none" stroke="#10b981" stroke-width="3" opacity="0.24"/><path d="M420 198 C580.5 128, 580.5 397, 741 327" fill="none" stroke="#2563eb" stroke-width="3" opacity="0.24"/>
  <circle cx="333" cy="375" r="13" fill="#10b981" opacity="0.62"/><circle cx="654" cy="144" r="9" fill="#2563eb" opacity="0.62"/><circle cx="255" cy="273" r="9" fill="#10b981" opacity="0.62"/><circle cx="576" cy="402" r="13" fill="#2563eb" opacity="0.62"/><circle cx="177" cy="171" r="9" fill="#10b981" opacity="0.62"/><circle cx="498" cy="300" r="9" fill="#2563eb" opacity="0.62"/><circle cx="99" cy="429" r="13" fill="#10b981" opacity="0.62"/><circle cx="420" cy="198" r="9" fill="#2563eb" opacity="0.62"/><circle cx="741" cy="327" r="9" fill="#10b981" opacity="0.62"/>
  <rect x="48" y="48" width="164" height="44" rx="22" fill="white" opacity="0.9"/>
  <text x="72" y="77" fill="#2563eb" font-family="ui-monospace, SFMono-Regular, Menlo, monospace" font-size="22" font-weight="800">2023</text>
  <text x="48" y="160" fill="#111827" font-family="Inter, Manrope, Arial, sans-serif" font-size="48" font-weight="800">
    <tspan x="48" dy="0">My best guess at the</tspan><tspan x="48" dy="56">important tricks for</tspan><tspan x="48" dy="56">training 1L SAEs</tspan>
  </text>
  <text x="52" y="458" fill="#374151" font-family="ui-monospace, SFMono-Regular, Menlo, monospace" font-size="22" font-weight="700">
    <tspan x="52" dy="0">LessWrong</tspan>
  </text>
  <rect x="48" y="504" width="248" height="4" rx="2" fill="#2563eb"/>
  <rect x="306" y="504" width="142" height="4" rx="2" fill="#10b981"/>
</svg>