<svg xmlns="http://www.w3.org/2000/svg" viewBox="0 0 900 560" role="img" aria-labelledby="title desc">
  <title id="title">Open problems in mechanistic interpretability</title>
  <desc id="desc">Generated thumbnail for Open problems in mechanistic interpretability</desc>
  <rect width="900" height="560" fill="#fff7ed"/>
  <path d="M0 96H900M0 192H900M0 288H900M0 384H900M0 480H900M112 0V560M224 0V560M336 0V560M448 0V560M560 0V560M672 0V560M784 0V560" stroke="#111827" stroke-width="1" opacity="0.07"/>
  <circle cx="760" cy="118" r="170" fill="#dc2626" opacity="0.11"/>
  <circle cx="192" cy="420" r="210" fill="#2563eb" opacity="0.11"/>
  <path d="M486 150 C552 80, 552 448, 618 378" fill="none" stroke="#2563eb" stroke-width="3" opacity="0.24"/><path d="M618 378 C684 308, 684 316, 750 246" fill="none" stroke="#dc2626" stroke-width="3" opacity="0.24"/><path d="M750 246 C456 176, 456 184, 162 114" fill="none" stroke="#2563eb" stroke-width="3" opacity="0.24"/><path d="M162 114 C228 44, 228 412, 294 342" fill="none" stroke="#dc2626" stroke-width="3" opacity="0.24"/><path d="M294 342 C360 272, 360 280, 426 210" fill="none" stroke="#2563eb" stroke-width="3" opacity="0.24"/><path d="M426 210 C492 140, 492 508, 558 438" fill="none" stroke="#dc2626" stroke-width="3" opacity="0.24"/><path d="M558 438 C624 368, 624 376, 690 306" fill="none" stroke="#2563eb" stroke-width="3" opacity="0.24"/><path d="M690 306 C396 236, 396 244, 102 174" fill="none" stroke="#dc2626" stroke-width="3" opacity="0.24"/>
  <circle cx="486" cy="150" r="13" fill="#2563eb" opacity="0.62"/><circle cx="618" cy="378" r="9" fill="#dc2626" opacity="0.62"/><circle cx="750" cy="246" r="9" fill="#2563eb" opacity="0.62"/><circle cx="162" cy="114" r="13" fill="#dc2626" opacity="0.62"/><circle cx="294" cy="342" r="9" fill="#2563eb" opacity="0.62"/><circle cx="426" cy="210" r="9" fill="#dc2626" opacity="0.62"/><circle cx="558" cy="438" r="13" fill="#2563eb" opacity="0.62"/><circle cx="690" cy="306" r="9" fill="#dc2626" opacity="0.62"/><circle cx="102" cy="174" r="9" fill="#2563eb" opacity="0.62"/>
  <rect x="48" y="48" width="164" height="44" rx="22" fill="white" opacity="0.9"/>
  <text x="72" y="77" fill="#dc2626" font-family="ui-monospace, SFMono-Regular, Menlo, monospace" font-size="22" font-weight="800">2025</text>
  <text x="48" y="160" fill="#111827" font-family="Inter, Manrope, Arial, sans-serif" font-size="48" font-weight="800">
    <tspan x="48" dy="0">Open problems in mechanistic</tspan><tspan x="48" dy="56">interpretability</tspan>
  </text>
  <text x="52" y="458" fill="#374151" font-family="ui-monospace, SFMono-Regular, Menlo, monospace" font-size="22" font-weight="700">
    <tspan x="52" dy="0">TMLR</tspan>
  </text>
  <rect x="48" y="504" width="248" height="4" rx="2" fill="#dc2626"/>
  <rect x="306" y="504" width="142" height="4" rx="2" fill="#2563eb"/>
</svg>