<svg xmlns="http://www.w3.org/2000/svg" viewBox="0 0 900 560" role="img" aria-labelledby="title desc">
  <title id="title">Progress Update #2 from the GDM Mech Interp Team (Negative Results for SAEs On Downstream Tasks and Deprioritising SAE Research)</title>
  <desc id="desc">Generated thumbnail for Progress Update #2 from the GDM Mech Interp Team (Negative Results for SAEs On Downstream Tasks and Deprioritising SAE Research)</desc>
  <rect width="900" height="560" fill="#eff6ff"/>
  <path d="M0 96H900M0 192H900M0 288H900M0 384H900M0 480H900M112 0V560M224 0V560M336 0V560M448 0V560M560 0V560M672 0V560M784 0V560" stroke="#111827" stroke-width="1" opacity="0.07"/>
  <circle cx="760" cy="118" r="170" fill="#2563eb" opacity="0.11"/>
  <circle cx="192" cy="420" r="210" fill="#10b981" opacity="0.11"/>
  <path d="M588 400 C431 330, 431 244, 274 174" fill="none" stroke="#10b981" stroke-width="3" opacity="0.24"/><path d="M274 174 C477 104, 477 378, 680 308" fill="none" stroke="#2563eb" stroke-width="3" opacity="0.24"/><path d="M680 308 C523 238, 523 512, 366 442" fill="none" stroke="#10b981" stroke-width="3" opacity="0.24"/><path d="M366 442 C569 372, 569 286, 772 216" fill="none" stroke="#2563eb" stroke-width="3" opacity="0.24"/><path d="M772 216 C615 146, 615 420, 458 350" fill="none" stroke="#10b981" stroke-width="3" opacity="0.24"/><path d="M458 350 C301 280, 301 194, 144 124" fill="none" stroke="#2563eb" stroke-width="3" opacity="0.24"/><path d="M144 124 C347 54, 347 328, 550 258" fill="none" stroke="#10b981" stroke-width="3" opacity="0.24"/><path d="M550 258 C393 188, 393 462, 236 392" fill="none" stroke="#2563eb" stroke-width="3" opacity="0.24"/>
  <circle cx="588" cy="400" r="13" fill="#10b981" opacity="0.62"/><circle cx="274" cy="174" r="9" fill="#2563eb" opacity="0.62"/><circle cx="680" cy="308" r="9" fill="#10b981" opacity="0.62"/><circle cx="366" cy="442" r="13" fill="#2563eb" opacity="0.62"/><circle cx="772" cy="216" r="9" fill="#10b981" opacity="0.62"/><circle cx="458" cy="350" r="9" fill="#2563eb" opacity="0.62"/><circle cx="144" cy="124" r="13" fill="#10b981" opacity="0.62"/><circle cx="550" cy="258" r="9" fill="#2563eb" opacity="0.62"/><circle cx="236" cy="392" r="9" fill="#10b981" opacity="0.62"/>
  <rect x="48" y="48" width="164" height="44" rx="22" fill="white" opacity="0.9"/>
  <text x="72" y="77" fill="#2563eb" font-family="ui-monospace, SFMono-Regular, Menlo, monospace" font-size="22" font-weight="800">2025</text>
  <text x="48" y="160" fill="#111827" font-family="Inter, Manrope, Arial, sans-serif" font-size="48" font-weight="800">
    <tspan x="48" dy="0">Progress Update #2 from the</tspan><tspan x="48" dy="56">GDM Mech Interp Team</tspan><tspan x="48" dy="56">(Negative Results for SAEs</tspan><tspan x="48" dy="56">On Downstream Tasks and...</tspan>
  </text>
  <text x="52" y="458" fill="#374151" font-family="ui-monospace, SFMono-Regular, Menlo, monospace" font-size="22" font-weight="700">
    <tspan x="52" dy="0">alignmentforum.org/posts/4uXCAJNuPKtKBsi28</tspan>
  </text>
  <rect x="48" y="504" width="248" height="4" rx="2" fill="#2563eb"/>
  <rect x="306" y="504" width="142" height="4" rx="2" fill="#10b981"/>
</svg>