<svg xmlns="http://www.w3.org/2000/svg" viewBox="0 0 900 560" role="img" aria-labelledby="title desc">
  <title id="title">SAE Features for Refusal and Sycophancy Steering Vectors</title>
  <desc id="desc">Generated thumbnail for SAE Features for Refusal and Sycophancy Steering Vectors</desc>
  <rect width="900" height="560" fill="#eff6ff"/>
  <path d="M0 96H900M0 192H900M0 288H900M0 384H900M0 480H900M112 0V560M224 0V560M336 0V560M448 0V560M560 0V560M672 0V560M784 0V560" stroke="#111827" stroke-width="1" opacity="0.07"/>
  <circle cx="760" cy="118" r="170" fill="#2563eb" opacity="0.11"/>
  <circle cx="192" cy="420" r="210" fill="#10b981" opacity="0.11"/>
  <path d="M387 225 C436.5 155, 436.5 466, 486 396" fill="none" stroke="#10b981" stroke-width="3" opacity="0.24"/><path d="M486 396 C535.5 326, 535.5 277, 585 207" fill="none" stroke="#2563eb" stroke-width="3" opacity="0.24"/><path d="M585 207 C634.5 137, 634.5 448, 684 378" fill="none" stroke="#10b981" stroke-width="3" opacity="0.24"/><path d="M684 378 C733.5 308, 733.5 259, 783 189" fill="none" stroke="#2563eb" stroke-width="3" opacity="0.24"/><path d="M783 189 C472.5 119, 472.5 430, 162 360" fill="none" stroke="#10b981" stroke-width="3" opacity="0.24"/><path d="M162 360 C211.5 290, 211.5 241, 261 171" fill="none" stroke="#2563eb" stroke-width="3" opacity="0.24"/><path d="M261 171 C310.5 101, 310.5 412, 360 342" fill="none" stroke="#10b981" stroke-width="3" opacity="0.24"/><path d="M360 342 C409.5 272, 409.5 223, 459 153" fill="none" stroke="#2563eb" stroke-width="3" opacity="0.24"/>
  <circle cx="387" cy="225" r="13" fill="#10b981" opacity="0.62"/><circle cx="486" cy="396" r="9" fill="#2563eb" opacity="0.62"/><circle cx="585" cy="207" r="9" fill="#10b981" opacity="0.62"/><circle cx="684" cy="378" r="13" fill="#2563eb" opacity="0.62"/><circle cx="783" cy="189" r="9" fill="#10b981" opacity="0.62"/><circle cx="162" cy="360" r="9" fill="#2563eb" opacity="0.62"/><circle cx="261" cy="171" r="13" fill="#10b981" opacity="0.62"/><circle cx="360" cy="342" r="9" fill="#2563eb" opacity="0.62"/><circle cx="459" cy="153" r="9" fill="#10b981" opacity="0.62"/>
  <rect x="48" y="48" width="164" height="44" rx="22" fill="white" opacity="0.9"/>
  <text x="72" y="77" fill="#2563eb" font-family="ui-monospace, SFMono-Regular, Menlo, monospace" font-size="22" font-weight="800">2024</text>
  <text x="48" y="160" fill="#111827" font-family="Inter, Manrope, Arial, sans-serif" font-size="48" font-weight="800">
    <tspan x="48" dy="0">SAE Features for Refusal and</tspan><tspan x="48" dy="56">Sycophancy Steering Vectors</tspan>
  </text>
  <text x="52" y="458" fill="#374151" font-family="ui-monospace, SFMono-Regular, Menlo, monospace" font-size="22" font-weight="700">
    <tspan x="52" dy="0">Alignment Forum</tspan>
  </text>
  <rect x="48" y="504" width="248" height="4" rx="2" fill="#2563eb"/>
  <rect x="306" y="504" width="142" height="4" rx="2" fill="#10b981"/>
</svg>