<svg xmlns="http://www.w3.org/2000/svg" viewBox="0 0 900 560" role="img" aria-labelledby="title desc">
  <title id="title">SAEBench: A Comprehensive Benchmark for Sparse Autoencoders</title>
  <desc id="desc">Generated thumbnail for SAEBench: A Comprehensive Benchmark for Sparse Autoencoders</desc>
  <rect width="900" height="560" fill="#eff6ff"/>
  <path d="M0 96H900M0 192H900M0 288H900M0 384H900M0 480H900M112 0V560M224 0V560M336 0V560M448 0V560M560 0V560M672 0V560M784 0V560" stroke="#111827" stroke-width="1" opacity="0.07"/>
  <circle cx="760" cy="118" r="170" fill="#2563eb" opacity="0.11"/>
  <circle cx="192" cy="420" r="210" fill="#10b981" opacity="0.11"/>
  <path d="M654 230 C388 160, 388 472, 122 402" fill="none" stroke="#10b981" stroke-width="3" opacity="0.24"/><path d="M122 402 C216 332, 216 284, 310 214" fill="none" stroke="#2563eb" stroke-width="3" opacity="0.24"/><path d="M310 214 C404 144, 404 456, 498 386" fill="none" stroke="#10b981" stroke-width="3" opacity="0.24"/><path d="M498 386 C592 316, 592 268, 686 198" fill="none" stroke="#2563eb" stroke-width="3" opacity="0.24"/><path d="M686 198 C420 128, 420 440, 154 370" fill="none" stroke="#10b981" stroke-width="3" opacity="0.24"/><path d="M154 370 C248 300, 248 252, 342 182" fill="none" stroke="#2563eb" stroke-width="3" opacity="0.24"/><path d="M342 182 C436 112, 436 424, 530 354" fill="none" stroke="#10b981" stroke-width="3" opacity="0.24"/><path d="M530 354 C624 284, 624 236, 718 166" fill="none" stroke="#2563eb" stroke-width="3" opacity="0.24"/>
  <circle cx="654" cy="230" r="13" fill="#10b981" opacity="0.62"/><circle cx="122" cy="402" r="9" fill="#2563eb" opacity="0.62"/><circle cx="310" cy="214" r="9" fill="#10b981" opacity="0.62"/><circle cx="498" cy="386" r="13" fill="#2563eb" opacity="0.62"/><circle cx="686" cy="198" r="9" fill="#10b981" opacity="0.62"/><circle cx="154" cy="370" r="9" fill="#2563eb" opacity="0.62"/><circle cx="342" cy="182" r="13" fill="#10b981" opacity="0.62"/><circle cx="530" cy="354" r="9" fill="#2563eb" opacity="0.62"/><circle cx="718" cy="166" r="9" fill="#10b981" opacity="0.62"/>
  <rect x="48" y="48" width="164" height="44" rx="22" fill="white" opacity="0.9"/>
  <text x="72" y="77" fill="#2563eb" font-family="ui-monospace, SFMono-Regular, Menlo, monospace" font-size="22" font-weight="800">2025</text>
  <text x="48" y="160" fill="#111827" font-family="Inter, Manrope, Arial, sans-serif" font-size="48" font-weight="800">
    <tspan x="48" dy="0">SAEBench: A Comprehensive</tspan><tspan x="48" dy="56">Benchmark for Sparse</tspan><tspan x="48" dy="56">Autoencoders</tspan>
  </text>
  <text x="52" y="458" fill="#374151" font-family="ui-monospace, SFMono-Regular, Menlo, monospace" font-size="22" font-weight="700">
    <tspan x="52" dy="0">GitHub repository. Accessed</tspan>
  </text>
  <rect x="48" y="504" width="248" height="4" rx="2" fill="#2563eb"/>
  <rect x="306" y="504" width="142" height="4" rx="2" fill="#10b981"/>
</svg>