<svg xmlns="http://www.w3.org/2000/svg" viewBox="0 0 900 560" role="img" aria-labelledby="title desc">
  <title id="title">SAEs (Usually) Transfer Between Base and Chat Models</title>
  <desc id="desc">Generated thumbnail for SAEs (Usually) Transfer Between Base and Chat Models</desc>
  <rect width="900" height="560" fill="#eff6ff"/>
  <path d="M0 96H900M0 192H900M0 288H900M0 384H900M0 480H900M112 0V560M224 0V560M336 0V560M448 0V560M560 0V560M672 0V560M784 0V560" stroke="#111827" stroke-width="1" opacity="0.07"/>
  <circle cx="760" cy="118" r="170" fill="#2563eb" opacity="0.11"/>
  <circle cx="192" cy="420" r="210" fill="#10b981" opacity="0.11"/>
  <path d="M339 425 C260.5 355, 260.5 202, 182 132" fill="none" stroke="#10b981" stroke-width="3" opacity="0.24"/><path d="M182 132 C463.5 62, 463.5 269, 745 199" fill="none" stroke="#2563eb" stroke-width="3" opacity="0.24"/><path d="M745 199 C666.5 129, 666.5 336, 588 266" fill="none" stroke="#10b981" stroke-width="3" opacity="0.24"/><path d="M588 266 C509.5 196, 509.5 403, 431 333" fill="none" stroke="#2563eb" stroke-width="3" opacity="0.24"/><path d="M431 333 C352.5 263, 352.5 470, 274 400" fill="none" stroke="#10b981" stroke-width="3" opacity="0.24"/><path d="M274 400 C195.5 330, 195.5 177, 117 107" fill="none" stroke="#2563eb" stroke-width="3" opacity="0.24"/><path d="M117 107 C398.5 37, 398.5 244, 680 174" fill="none" stroke="#10b981" stroke-width="3" opacity="0.24"/><path d="M680 174 C601.5 104, 601.5 311, 523 241" fill="none" stroke="#2563eb" stroke-width="3" opacity="0.24"/>
  <circle cx="339" cy="425" r="13" fill="#10b981" opacity="0.62"/><circle cx="182" cy="132" r="9" fill="#2563eb" opacity="0.62"/><circle cx="745" cy="199" r="9" fill="#10b981" opacity="0.62"/><circle cx="588" cy="266" r="13" fill="#2563eb" opacity="0.62"/><circle cx="431" cy="333" r="9" fill="#10b981" opacity="0.62"/><circle cx="274" cy="400" r="9" fill="#2563eb" opacity="0.62"/><circle cx="117" cy="107" r="13" fill="#10b981" opacity="0.62"/><circle cx="680" cy="174" r="9" fill="#2563eb" opacity="0.62"/><circle cx="523" cy="241" r="9" fill="#10b981" opacity="0.62"/>
  <rect x="48" y="48" width="164" height="44" rx="22" fill="white" opacity="0.9"/>
  <text x="72" y="77" fill="#2563eb" font-family="ui-monospace, SFMono-Regular, Menlo, monospace" font-size="22" font-weight="800">2024</text>
  <text x="48" y="160" fill="#111827" font-family="Inter, Manrope, Arial, sans-serif" font-size="48" font-weight="800">
    <tspan x="48" dy="0">SAEs (Usually) Transfer</tspan><tspan x="48" dy="56">Between Base and Chat Models</tspan>
  </text>
  <text x="52" y="458" fill="#374151" font-family="ui-monospace, SFMono-Regular, Menlo, monospace" font-size="22" font-weight="700">
    <tspan x="52" dy="0">alignmentforum.org/posts/fmwk6qxrpW8d4jvbd</tspan>
  </text>
  <rect x="48" y="504" width="248" height="4" rx="2" fill="#2563eb"/>
  <rect x="306" y="504" width="142" height="4" rx="2" fill="#10b981"/>
</svg>