<svg xmlns="http://www.w3.org/2000/svg" viewBox="0 0 900 560" role="img" aria-labelledby="title desc">
  <title id="title">Scaling Sparse Feature Circuits For Studying In-Context Learning</title>
  <desc id="desc">Generated thumbnail for Scaling Sparse Feature Circuits For Studying In-Context Learning</desc>
  <rect width="900" height="560" fill="#eff6ff"/>
  <path d="M0 96H900M0 192H900M0 288H900M0 384H900M0 480H900M112 0V560M224 0V560M336 0V560M448 0V560M560 0V560M672 0V560M784 0V560" stroke="#111827" stroke-width="1" opacity="0.07"/>
  <circle cx="760" cy="118" r="170" fill="#2563eb" opacity="0.11"/>
  <circle cx="192" cy="420" r="210" fill="#10b981" opacity="0.11"/>
  <path d="M519 125 C470.5 55, 470.5 202, 422 132" fill="none" stroke="#10b981" stroke-width="3" opacity="0.24"/><path d="M422 132 C373.5 62, 373.5 209, 325 139" fill="none" stroke="#2563eb" stroke-width="3" opacity="0.24"/><path d="M325 139 C276.5 69, 276.5 216, 228 146" fill="none" stroke="#10b981" stroke-width="3" opacity="0.24"/><path d="M228 146 C179.5 76, 179.5 223, 131 153" fill="none" stroke="#2563eb" stroke-width="3" opacity="0.24"/><path d="M131 153 C442.5 83, 442.5 230, 754 160" fill="none" stroke="#10b981" stroke-width="3" opacity="0.24"/><path d="M754 160 C705.5 90, 705.5 237, 657 167" fill="none" stroke="#2563eb" stroke-width="3" opacity="0.24"/><path d="M657 167 C608.5 97, 608.5 244, 560 174" fill="none" stroke="#10b981" stroke-width="3" opacity="0.24"/><path d="M560 174 C511.5 104, 511.5 251, 463 181" fill="none" stroke="#2563eb" stroke-width="3" opacity="0.24"/>
  <circle cx="519" cy="125" r="13" fill="#10b981" opacity="0.62"/><circle cx="422" cy="132" r="9" fill="#2563eb" opacity="0.62"/><circle cx="325" cy="139" r="9" fill="#10b981" opacity="0.62"/><circle cx="228" cy="146" r="13" fill="#2563eb" opacity="0.62"/><circle cx="131" cy="153" r="9" fill="#10b981" opacity="0.62"/><circle cx="754" cy="160" r="9" fill="#2563eb" opacity="0.62"/><circle cx="657" cy="167" r="13" fill="#10b981" opacity="0.62"/><circle cx="560" cy="174" r="9" fill="#2563eb" opacity="0.62"/><circle cx="463" cy="181" r="9" fill="#10b981" opacity="0.62"/>
  <rect x="48" y="48" width="164" height="44" rx="22" fill="white" opacity="0.9"/>
  <text x="72" y="77" fill="#2563eb" font-family="ui-monospace, SFMono-Regular, Menlo, monospace" font-size="22" font-weight="800">2025</text>
  <text x="48" y="160" fill="#111827" font-family="Inter, Manrope, Arial, sans-serif" font-size="48" font-weight="800">
    <tspan x="48" dy="0">Scaling Sparse Feature</tspan><tspan x="48" dy="56">Circuits For Studying</tspan><tspan x="48" dy="56">In-Context Learning</tspan>
  </text>
  <text x="52" y="458" fill="#374151" font-family="ui-monospace, SFMono-Regular, Menlo, monospace" font-size="22" font-weight="700">
    <tspan x="52" dy="0">ICML</tspan>
  </text>
  <rect x="48" y="504" width="248" height="4" rx="2" fill="#2563eb"/>
  <rect x="306" y="504" width="142" height="4" rx="2" fill="#10b981"/>
</svg>