<svg xmlns="http://www.w3.org/2000/svg" viewBox="0 0 900 560" role="img" aria-labelledby="title desc">
  <title id="title">Self-Explaining SAE Features</title>
  <desc id="desc">Generated thumbnail for Self-Explaining SAE Features</desc>
  <rect width="900" height="560" fill="#eff6ff"/>
  <path d="M0 96H900M0 192H900M0 288H900M0 384H900M0 480H900M112 0V560M224 0V560M336 0V560M448 0V560M560 0V560M672 0V560M784 0V560" stroke="#111827" stroke-width="1" opacity="0.07"/>
  <circle cx="760" cy="118" r="170" fill="#2563eb" opacity="0.11"/>
  <circle cx="192" cy="420" r="210" fill="#10b981" opacity="0.11"/>
  <path d="M738 90 C486 20, 486 304, 234 234" fill="none" stroke="#10b981" stroke-width="3" opacity="0.24"/><path d="M234 234 C342 164, 342 448, 450 378" fill="none" stroke="#2563eb" stroke-width="3" opacity="0.24"/><path d="M450 378 C558 308, 558 232, 666 162" fill="none" stroke="#10b981" stroke-width="3" opacity="0.24"/><path d="M666 162 C414 92, 414 376, 162 306" fill="none" stroke="#2563eb" stroke-width="3" opacity="0.24"/><path d="M162 306 C270 236, 270 160, 378 90" fill="none" stroke="#10b981" stroke-width="3" opacity="0.24"/><path d="M378 90 C486 20, 486 304, 594 234" fill="none" stroke="#2563eb" stroke-width="3" opacity="0.24"/><path d="M594 234 C342 164, 342 448, 90 378" fill="none" stroke="#10b981" stroke-width="3" opacity="0.24"/><path d="M90 378 C198 308, 198 232, 306 162" fill="none" stroke="#2563eb" stroke-width="3" opacity="0.24"/>
  <circle cx="738" cy="90" r="13" fill="#10b981" opacity="0.62"/><circle cx="234" cy="234" r="9" fill="#2563eb" opacity="0.62"/><circle cx="450" cy="378" r="9" fill="#10b981" opacity="0.62"/><circle cx="666" cy="162" r="13" fill="#2563eb" opacity="0.62"/><circle cx="162" cy="306" r="9" fill="#10b981" opacity="0.62"/><circle cx="378" cy="90" r="9" fill="#2563eb" opacity="0.62"/><circle cx="594" cy="234" r="13" fill="#10b981" opacity="0.62"/><circle cx="90" cy="378" r="9" fill="#2563eb" opacity="0.62"/><circle cx="306" cy="162" r="9" fill="#10b981" opacity="0.62"/>
  <rect x="48" y="48" width="164" height="44" rx="22" fill="white" opacity="0.9"/>
  <text x="72" y="77" fill="#2563eb" font-family="ui-monospace, SFMono-Regular, Menlo, monospace" font-size="22" font-weight="800">2024</text>
  <text x="48" y="160" fill="#111827" font-family="Inter, Manrope, Arial, sans-serif" font-size="48" font-weight="800">
    <tspan x="48" dy="0">Self-Explaining SAE Features</tspan>
  </text>
  <text x="52" y="458" fill="#374151" font-family="ui-monospace, SFMono-Regular, Menlo, monospace" font-size="22" font-weight="700">
    <tspan x="52" dy="0">alignmentforum.org/posts/self-explaining-sae-features</tspan>
  </text>
  <rect x="48" y="504" width="248" height="4" rx="2" fill="#2563eb"/>
  <rect x="306" y="504" width="142" height="4" rx="2" fill="#10b981"/>
</svg>