<svg xmlns="http://www.w3.org/2000/svg" viewBox="0 0 900 560" role="img" aria-labelledby="title desc">
  <title id="title">Simple LLM Baselines are Competitive for Model Diffing</title>
  <desc id="desc">Generated thumbnail for Simple LLM Baselines are Competitive for Model Diffing</desc>
  <rect width="900" height="560" fill="#f8fafc"/>
  <path d="M0 96H900M0 192H900M0 288H900M0 384H900M0 480H900M112 0V560M224 0V560M336 0V560M448 0V560M560 0V560M672 0V560M784 0V560" stroke="#111827" stroke-width="1" opacity="0.07"/>
  <circle cx="760" cy="118" r="170" fill="#172554" opacity="0.11"/>
  <circle cx="192" cy="420" r="210" fill="#ef4444" opacity="0.11"/>
  <path d="M378 90 C306 20, 306 304, 234 234" fill="none" stroke="#ef4444" stroke-width="3" opacity="0.24"/><path d="M234 234 C162 164, 162 448, 90 378" fill="none" stroke="#172554" stroke-width="3" opacity="0.24"/><path d="M90 378 C378 308, 378 232, 666 162" fill="none" stroke="#ef4444" stroke-width="3" opacity="0.24"/><path d="M666 162 C594 92, 594 376, 522 306" fill="none" stroke="#172554" stroke-width="3" opacity="0.24"/><path d="M522 306 C450 236, 450 160, 378 90" fill="none" stroke="#ef4444" stroke-width="3" opacity="0.24"/><path d="M378 90 C306 20, 306 304, 234 234" fill="none" stroke="#172554" stroke-width="3" opacity="0.24"/><path d="M234 234 C162 164, 162 448, 90 378" fill="none" stroke="#ef4444" stroke-width="3" opacity="0.24"/><path d="M90 378 C378 308, 378 232, 666 162" fill="none" stroke="#172554" stroke-width="3" opacity="0.24"/>
  <circle cx="378" cy="90" r="13" fill="#ef4444" opacity="0.62"/><circle cx="234" cy="234" r="9" fill="#172554" opacity="0.62"/><circle cx="90" cy="378" r="9" fill="#ef4444" opacity="0.62"/><circle cx="666" cy="162" r="13" fill="#172554" opacity="0.62"/><circle cx="522" cy="306" r="9" fill="#ef4444" opacity="0.62"/><circle cx="378" cy="90" r="9" fill="#172554" opacity="0.62"/><circle cx="234" cy="234" r="13" fill="#ef4444" opacity="0.62"/><circle cx="90" cy="378" r="9" fill="#172554" opacity="0.62"/><circle cx="666" cy="162" r="9" fill="#ef4444" opacity="0.62"/>
  <rect x="48" y="48" width="164" height="44" rx="22" fill="white" opacity="0.9"/>
  <text x="72" y="77" fill="#172554" font-family="ui-monospace, SFMono-Regular, Menlo, monospace" font-size="22" font-weight="800">2026</text>
  <text x="48" y="160" fill="#111827" font-family="Inter, Manrope, Arial, sans-serif" font-size="48" font-weight="800">
    <tspan x="48" dy="0">Simple LLM Baselines are</tspan><tspan x="48" dy="56">Competitive for Model</tspan><tspan x="48" dy="56">Diffing</tspan>
  </text>
  <text x="52" y="458" fill="#374151" font-family="ui-monospace, SFMono-Regular, Menlo, monospace" font-size="22" font-weight="700">
    <tspan x="52" dy="0">arXiv preprint arXiv:2602.10371</tspan>
  </text>
  <rect x="48" y="504" width="248" height="4" rx="2" fill="#172554"/>
  <rect x="306" y="504" width="142" height="4" rx="2" fill="#ef4444"/>
</svg>