<svg xmlns="http://www.w3.org/2000/svg" viewBox="0 0 900 560" role="img" aria-labelledby="title desc">
  <title id="title">Stealing Part of a Production Language Model</title>
  <desc id="desc">Generated thumbnail for Stealing Part of a Production Language Model</desc>
  <rect width="900" height="560" fill="#f8fafc"/>
  <path d="M0 96H900M0 192H900M0 288H900M0 384H900M0 480H900M112 0V560M224 0V560M336 0V560M448 0V560M560 0V560M672 0V560M784 0V560" stroke="#111827" stroke-width="1" opacity="0.07"/>
  <circle cx="760" cy="118" r="170" fill="#172554" opacity="0.11"/>
  <circle cx="192" cy="420" r="210" fill="#ef4444" opacity="0.11"/>
  <path d="M204 200 C463 130, 463 292, 722 222" fill="none" stroke="#ef4444" stroke-width="3" opacity="0.24"/><path d="M722 222 C621 152, 621 314, 520 244" fill="none" stroke="#172554" stroke-width="3" opacity="0.24"/><path d="M520 244 C419 174, 419 336, 318 266" fill="none" stroke="#ef4444" stroke-width="3" opacity="0.24"/><path d="M318 266 C217 196, 217 358, 116 288" fill="none" stroke="#172554" stroke-width="3" opacity="0.24"/><path d="M116 288 C375 218, 375 380, 634 310" fill="none" stroke="#ef4444" stroke-width="3" opacity="0.24"/><path d="M634 310 C533 240, 533 402, 432 332" fill="none" stroke="#172554" stroke-width="3" opacity="0.24"/><path d="M432 332 C331 262, 331 424, 230 354" fill="none" stroke="#ef4444" stroke-width="3" opacity="0.24"/><path d="M230 354 C489 284, 489 446, 748 376" fill="none" stroke="#172554" stroke-width="3" opacity="0.24"/>
  <circle cx="204" cy="200" r="13" fill="#ef4444" opacity="0.62"/><circle cx="722" cy="222" r="9" fill="#172554" opacity="0.62"/><circle cx="520" cy="244" r="9" fill="#ef4444" opacity="0.62"/><circle cx="318" cy="266" r="13" fill="#172554" opacity="0.62"/><circle cx="116" cy="288" r="9" fill="#ef4444" opacity="0.62"/><circle cx="634" cy="310" r="9" fill="#172554" opacity="0.62"/><circle cx="432" cy="332" r="13" fill="#ef4444" opacity="0.62"/><circle cx="230" cy="354" r="9" fill="#172554" opacity="0.62"/><circle cx="748" cy="376" r="9" fill="#ef4444" opacity="0.62"/>
  <rect x="48" y="48" width="164" height="44" rx="22" fill="white" opacity="0.9"/>
  <text x="72" y="77" fill="#172554" font-family="ui-monospace, SFMono-Regular, Menlo, monospace" font-size="22" font-weight="800">2024</text>
  <text x="48" y="160" fill="#111827" font-family="Inter, Manrope, Arial, sans-serif" font-size="48" font-weight="800">
    <tspan x="48" dy="0">Stealing Part of a</tspan><tspan x="48" dy="56">Production Language Model</tspan>
  </text>
  <text x="52" y="458" fill="#374151" font-family="ui-monospace, SFMono-Regular, Menlo, monospace" font-size="22" font-weight="700">
    <tspan x="52" dy="0">ICML 2024 Best Paper</tspan>
  </text>
  <rect x="48" y="504" width="248" height="4" rx="2" fill="#172554"/>
  <rect x="306" y="504" width="142" height="4" rx="2" fill="#ef4444"/>
</svg>