<svg xmlns="http://www.w3.org/2000/svg" viewBox="0 0 900 560" role="img" aria-labelledby="title desc">
  <title id="title">Successor Heads: Recurring, Interpretable Attention Heads In The Wild</title>
  <desc id="desc">Generated thumbnail for Successor Heads: Recurring, Interpretable Attention Heads In The Wild</desc>
  <rect width="900" height="560" fill="#fff7ed"/>
  <path d="M0 96H900M0 192H900M0 288H900M0 384H900M0 480H900M112 0V560M224 0V560M336 0V560M448 0V560M560 0V560M672 0V560M784 0V560" stroke="#111827" stroke-width="1" opacity="0.07"/>
  <circle cx="760" cy="118" r="170" fill="#dc2626" opacity="0.11"/>
  <circle cx="192" cy="420" r="210" fill="#2563eb" opacity="0.11"/>
  <path d="M750 430 C500 360, 500 280, 250 210" fill="none" stroke="#2563eb" stroke-width="3" opacity="0.24"/><path d="M250 210 C360 140, 360 420, 470 350" fill="none" stroke="#dc2626" stroke-width="3" opacity="0.24"/><path d="M470 350 C580 280, 580 200, 690 130" fill="none" stroke="#2563eb" stroke-width="3" opacity="0.24"/><path d="M690 130 C440 60, 440 340, 190 270" fill="none" stroke="#dc2626" stroke-width="3" opacity="0.24"/><path d="M190 270 C300 200, 300 480, 410 410" fill="none" stroke="#2563eb" stroke-width="3" opacity="0.24"/><path d="M410 410 C520 340, 520 260, 630 190" fill="none" stroke="#dc2626" stroke-width="3" opacity="0.24"/><path d="M630 190 C380 120, 380 400, 130 330" fill="none" stroke="#2563eb" stroke-width="3" opacity="0.24"/><path d="M130 330 C240 260, 240 180, 350 110" fill="none" stroke="#dc2626" stroke-width="3" opacity="0.24"/>
  <circle cx="750" cy="430" r="13" fill="#2563eb" opacity="0.62"/><circle cx="250" cy="210" r="9" fill="#dc2626" opacity="0.62"/><circle cx="470" cy="350" r="9" fill="#2563eb" opacity="0.62"/><circle cx="690" cy="130" r="13" fill="#dc2626" opacity="0.62"/><circle cx="190" cy="270" r="9" fill="#2563eb" opacity="0.62"/><circle cx="410" cy="410" r="9" fill="#dc2626" opacity="0.62"/><circle cx="630" cy="190" r="13" fill="#2563eb" opacity="0.62"/><circle cx="130" cy="330" r="9" fill="#dc2626" opacity="0.62"/><circle cx="350" cy="110" r="9" fill="#2563eb" opacity="0.62"/>
  <rect x="48" y="48" width="164" height="44" rx="22" fill="white" opacity="0.9"/>
  <text x="72" y="77" fill="#dc2626" font-family="ui-monospace, SFMono-Regular, Menlo, monospace" font-size="22" font-weight="800">2023</text>
  <text x="48" y="160" fill="#111827" font-family="Inter, Manrope, Arial, sans-serif" font-size="48" font-weight="800">
    <tspan x="48" dy="0">Successor Heads: Recurring,</tspan><tspan x="48" dy="56">Interpretable Attention</tspan><tspan x="48" dy="56">Heads In The Wild</tspan>
  </text>
  <text x="52" y="458" fill="#374151" font-family="ui-monospace, SFMono-Regular, Menlo, monospace" font-size="22" font-weight="700">
    <tspan x="52" dy="0">ICLR</tspan>
  </text>
  <rect x="48" y="504" width="248" height="4" rx="2" fill="#dc2626"/>
  <rect x="306" y="504" width="142" height="4" rx="2" fill="#2563eb"/>
</svg>