<svg xmlns="http://www.w3.org/2000/svg" viewBox="0 0 900 560" role="img" aria-labelledby="title desc">
  <title id="title">Thought Anchors: Which LLM Reasoning Steps Matter?</title>
  <desc id="desc">Generated thumbnail for Thought Anchors: Which LLM Reasoning Steps Matter?</desc>
  <rect width="900" height="560" fill="#ecfeff"/>
  <path d="M0 96H900M0 192H900M0 288H900M0 384H900M0 480H900M112 0V560M224 0V560M336 0V560M448 0V560M560 0V560M672 0V560M784 0V560" stroke="#111827" stroke-width="1" opacity="0.07"/>
  <circle cx="760" cy="118" r="170" fill="#0f766e" opacity="0.11"/>
  <circle cx="192" cy="420" r="210" fill="#f97316" opacity="0.11"/>
  <path d="M705 355 C687.5 285, 687.5 190, 670 120" fill="none" stroke="#f97316" stroke-width="3" opacity="0.24"/><path d="M670 120 C652.5 50, 652.5 315, 635 245" fill="none" stroke="#0f766e" stroke-width="3" opacity="0.24"/><path d="M635 245 C617.5 175, 617.5 440, 600 370" fill="none" stroke="#f97316" stroke-width="3" opacity="0.24"/><path d="M600 370 C582.5 300, 582.5 205, 565 135" fill="none" stroke="#0f766e" stroke-width="3" opacity="0.24"/><path d="M565 135 C547.5 65, 547.5 330, 530 260" fill="none" stroke="#f97316" stroke-width="3" opacity="0.24"/><path d="M530 260 C512.5 190, 512.5 455, 495 385" fill="none" stroke="#0f766e" stroke-width="3" opacity="0.24"/><path d="M495 385 C477.5 315, 477.5 220, 460 150" fill="none" stroke="#f97316" stroke-width="3" opacity="0.24"/><path d="M460 150 C442.5 80, 442.5 345, 425 275" fill="none" stroke="#0f766e" stroke-width="3" opacity="0.24"/>
  <circle cx="705" cy="355" r="13" fill="#f97316" opacity="0.62"/><circle cx="670" cy="120" r="9" fill="#0f766e" opacity="0.62"/><circle cx="635" cy="245" r="9" fill="#f97316" opacity="0.62"/><circle cx="600" cy="370" r="13" fill="#0f766e" opacity="0.62"/><circle cx="565" cy="135" r="9" fill="#f97316" opacity="0.62"/><circle cx="530" cy="260" r="9" fill="#0f766e" opacity="0.62"/><circle cx="495" cy="385" r="13" fill="#f97316" opacity="0.62"/><circle cx="460" cy="150" r="9" fill="#0f766e" opacity="0.62"/><circle cx="425" cy="275" r="9" fill="#f97316" opacity="0.62"/>
  <rect x="48" y="48" width="164" height="44" rx="22" fill="white" opacity="0.9"/>
  <text x="72" y="77" fill="#0f766e" font-family="ui-monospace, SFMono-Regular, Menlo, monospace" font-size="22" font-weight="800">2025</text>
  <text x="48" y="160" fill="#111827" font-family="Inter, Manrope, Arial, sans-serif" font-size="48" font-weight="800">
    <tspan x="48" dy="0">Thought Anchors: Which LLM</tspan><tspan x="48" dy="56">Reasoning Steps Matter?</tspan>
  </text>
  <text x="52" y="458" fill="#374151" font-family="ui-monospace, SFMono-Regular, Menlo, monospace" font-size="22" font-weight="700">
    <tspan x="52" dy="0">arXiv preprint arXiv:2506.19143</tspan>
  </text>
  <rect x="48" y="504" width="248" height="4" rx="2" fill="#0f766e"/>
  <rect x="306" y="504" width="142" height="4" rx="2" fill="#f97316"/>
</svg>