<svg xmlns="http://www.w3.org/2000/svg" viewBox="0 0 900 560" role="img" aria-labelledby="title desc">
  <title id="title">Understanding Reasoning in Thinking Language Models via Steering Vectors</title>
  <desc id="desc">Generated thumbnail for Understanding Reasoning in Thinking Language Models via Steering Vectors</desc>
  <rect width="900" height="560" fill="#ecfeff"/>
  <path d="M0 96H900M0 192H900M0 288H900M0 384H900M0 480H900M112 0V560M224 0V560M336 0V560M448 0V560M560 0V560M672 0V560M784 0V560" stroke="#111827" stroke-width="1" opacity="0.07"/>
  <circle cx="760" cy="118" r="170" fill="#0f766e" opacity="0.11"/>
  <circle cx="192" cy="420" r="210" fill="#f97316" opacity="0.11"/>
  <path d="M708 440 C691 370, 691 364, 674 294" fill="none" stroke="#f97316" stroke-width="3" opacity="0.24"/><path d="M674 294 C657 224, 657 218, 640 148" fill="none" stroke="#0f766e" stroke-width="3" opacity="0.24"/><path d="M640 148 C623 78, 623 432, 606 362" fill="none" stroke="#f97316" stroke-width="3" opacity="0.24"/><path d="M606 362 C589 292, 589 286, 572 216" fill="none" stroke="#0f766e" stroke-width="3" opacity="0.24"/><path d="M572 216 C555 146, 555 500, 538 430" fill="none" stroke="#f97316" stroke-width="3" opacity="0.24"/><path d="M538 430 C521 360, 521 354, 504 284" fill="none" stroke="#0f766e" stroke-width="3" opacity="0.24"/><path d="M504 284 C487 214, 487 208, 470 138" fill="none" stroke="#f97316" stroke-width="3" opacity="0.24"/><path d="M470 138 C453 68, 453 422, 436 352" fill="none" stroke="#0f766e" stroke-width="3" opacity="0.24"/>
  <circle cx="708" cy="440" r="13" fill="#f97316" opacity="0.62"/><circle cx="674" cy="294" r="9" fill="#0f766e" opacity="0.62"/><circle cx="640" cy="148" r="9" fill="#f97316" opacity="0.62"/><circle cx="606" cy="362" r="13" fill="#0f766e" opacity="0.62"/><circle cx="572" cy="216" r="9" fill="#f97316" opacity="0.62"/><circle cx="538" cy="430" r="9" fill="#0f766e" opacity="0.62"/><circle cx="504" cy="284" r="13" fill="#f97316" opacity="0.62"/><circle cx="470" cy="138" r="9" fill="#0f766e" opacity="0.62"/><circle cx="436" cy="352" r="9" fill="#f97316" opacity="0.62"/>
  <rect x="48" y="48" width="164" height="44" rx="22" fill="white" opacity="0.9"/>
  <text x="72" y="77" fill="#0f766e" font-family="ui-monospace, SFMono-Regular, Menlo, monospace" font-size="22" font-weight="800">2025</text>
  <text x="48" y="160" fill="#111827" font-family="Inter, Manrope, Arial, sans-serif" font-size="48" font-weight="800">
    <tspan x="48" dy="0">Understanding Reasoning in</tspan><tspan x="48" dy="56">Thinking Language Models via</tspan><tspan x="48" dy="56">Steering Vectors</tspan>
  </text>
  <text x="52" y="458" fill="#374151" font-family="ui-monospace, SFMono-Regular, Menlo, monospace" font-size="22" font-weight="700">
    <tspan x="52" dy="0">ICLR 2025 Workshop on Reasoning</tspan><tspan x="52" dy="30">and Planning for LLMs</tspan>
  </text>
  <rect x="48" y="504" width="248" height="4" rx="2" fill="#0f766e"/>
  <rect x="306" y="504" width="142" height="4" rx="2" fill="#f97316"/>
</svg>