<svg xmlns="http://www.w3.org/2000/svg" viewBox="0 0 64 64" role="img" aria-label="AC">
  <rect width="64" height="64" rx="14" fill="#001f3d"/>
  <path d="M14 48 25.4 16h6.1L43 48h-6.4l-2.3-7.1H22.6L20.3 48H14Zm10.1-12h8.6l-4.3-13.4L24.1 36Z" fill="#ffffff"/>
  <path d="M45.6 48.6c-5 0-8.8-1.5-11.6-4.4-2.8-2.9-4.2-6.9-4.2-12s1.4-9.1 4.2-12c2.8-2.9 6.7-4.4 11.6-4.4 1.7 0 3.3.2 4.8.7 1.5.4 2.8 1.1 3.9 1.9v6.2c-2.6-1.8-5.3-2.7-8.2-2.7-3.2 0-5.6.9-7.3 2.6-1.7 1.8-2.5 4.3-2.5 7.7s.8 5.9 2.5 7.7c1.7 1.8 4.1 2.6 7.3 2.6 2.9 0 5.6-.9 8.2-2.7V46c-1.1.8-2.4 1.5-3.9 1.9-1.5.5-3.1.7-4.8.7Z" fill="#ff6b35"/>
</svg>
